<svg width="345" height="390" viewBox="0 0 345 390" fill="none" xmlns="http://www.w3.org/2000/svg">
<rect width="345" height="390" rx="25" fill="#0D8B2F"/>
<rect width="345" height="390" rx="25" fill="#0D8B2F"/>
<rect width="345" height="390" rx="25" fill="#E3F2E6"/>
<path d="M45.904 104.616C43.3813 104.616 40.9467 104.308 38.6 103.692C36.2827 103.047 34.3907 102.225 32.924 101.228L35.784 94.804C37.1627 95.684 38.7467 96.4173 40.536 97.004C42.3547 97.5613 44.1587 97.84 45.948 97.84C47.1507 97.84 48.1187 97.7373 48.852 97.532C49.5853 97.2973 50.1133 97.004 50.436 96.652C50.788 96.2707 50.964 95.8307 50.964 95.332C50.964 94.628 50.6413 94.0707 49.996 93.66C49.3507 93.2493 48.5147 92.912 47.488 92.648C46.4613 92.384 45.3173 92.12 44.056 91.856C42.824 91.592 41.5773 91.2547 40.316 90.844C39.084 90.4333 37.9547 89.9053 36.928 89.26C35.9013 88.5853 35.0653 87.72 34.42 86.664C33.7747 85.5787 33.452 84.2147 33.452 82.572C33.452 80.724 33.9507 79.052 34.948 77.556C35.9747 76.06 37.5 74.8573 39.524 73.948C41.548 73.0387 44.0707 72.584 47.092 72.584C49.116 72.584 51.096 72.8187 53.032 73.288C54.9973 73.728 56.7427 74.388 58.268 75.268L55.584 81.736C54.1173 80.944 52.6653 80.3573 51.228 79.976C49.7907 79.5653 48.3973 79.36 47.048 79.36C45.8453 79.36 44.8773 79.492 44.144 79.756C43.4107 79.9907 42.8827 80.3133 42.56 80.724C42.2373 81.1347 42.076 81.604 42.076 82.132C42.076 82.8067 42.384 83.3493 43 83.76C43.6453 84.1413 44.4813 84.464 45.508 84.728C46.564 84.9627 47.708 85.212 48.94 85.476C50.2013 85.74 51.448 86.0773 52.68 86.488C53.9413 86.8693 55.0853 87.3973 56.112 88.072C57.1387 88.7173 57.96 89.5827 58.576 90.668C59.2213 91.724 59.544 93.0587 59.544 94.672C59.544 96.4613 59.0307 98.1187 58.004 99.644C57.0067 101.14 55.496 102.343 53.472 103.252C51.4773 104.161 48.9547 104.616 45.904 104.616ZM78.9243 104.616C76.4896 104.616 74.2309 104.235 72.1483 103.472C70.0949 102.68 68.3056 101.565 66.7803 100.128C65.2843 98.6907 64.1109 97.004 63.2603 95.068C62.4096 93.1027 61.9843 90.9467 61.9843 88.6C61.9843 86.2533 62.4096 84.112 63.2603 82.176C64.1109 80.2107 65.2843 78.5093 66.7803 77.072C68.3056 75.6347 70.0949 74.5347 72.1483 73.772C74.2309 72.98 76.4896 72.584 78.9243 72.584C81.7696 72.584 84.3069 73.0827 86.5363 74.08C88.7949 75.0773 90.6723 76.5147 92.1683 78.392L86.6243 83.408C85.6269 82.2347 84.5269 81.34 83.3243 80.724C82.1509 80.108 80.8309 79.8 79.3643 79.8C78.1029 79.8 76.9443 80.0053 75.8883 80.416C74.8323 80.8267 73.9229 81.428 73.1603 82.22C72.4269 82.9827 71.8403 83.9067 71.4003 84.992C70.9896 86.0773 70.7843 87.28 70.7843 88.6C70.7843 89.92 70.9896 91.1227 71.4003 92.208C71.8403 93.2933 72.4269 94.232 73.1603 95.024C73.9229 95.7867 74.8323 96.3733 75.8883 96.784C76.9443 97.1947 78.1029 97.4 79.3643 97.4C80.8309 97.4 82.1509 97.092 83.3243 96.476C84.5269 95.86 85.6269 94.9653 86.6243 93.792L92.1683 98.808C90.6723 100.656 88.7949 102.093 86.5363 103.12C84.3069 104.117 81.7696 104.616 78.9243 104.616ZM116.645 73.2H125.357V104H116.645V73.2ZM104.765 104H96.0527V73.2H104.765V104ZM117.261 91.988H104.149V84.772H117.261V91.988ZM147.034 104.616C144.57 104.616 142.297 104.22 140.214 103.428C138.131 102.636 136.313 101.521 134.758 100.084C133.233 98.6173 132.045 96.916 131.194 94.98C130.343 93.044 129.918 90.9173 129.918 88.6C129.918 86.2827 130.343 84.156 131.194 82.22C132.045 80.284 133.233 78.5973 134.758 77.16C136.313 75.6933 138.131 74.564 140.214 73.772C142.297 72.98 144.57 72.584 147.034 72.584C149.527 72.584 151.801 72.98 153.854 73.772C155.937 74.564 157.741 75.6933 159.266 77.16C160.791 78.5973 161.979 80.284 162.83 82.22C163.71 84.156 164.15 86.2827 164.15 88.6C164.15 90.9173 163.71 93.0587 162.83 95.024C161.979 96.96 160.791 98.6467 159.266 100.084C157.741 101.521 155.937 102.636 153.854 103.428C151.801 104.22 149.527 104.616 147.034 104.616ZM147.034 97.4C148.207 97.4 149.293 97.1947 150.29 96.784C151.317 96.3733 152.197 95.7867 152.93 95.024C153.693 94.232 154.279 93.2933 154.69 92.208C155.13 91.1227 155.35 89.92 155.35 88.6C155.35 87.2507 155.13 86.048 154.69 84.992C154.279 83.9067 153.693 82.9827 152.93 82.22C152.197 81.428 151.317 80.8267 150.29 80.416C149.293 80.0053 148.207 79.8 147.034 79.8C145.861 79.8 144.761 80.0053 143.734 80.416C142.737 80.8267 141.857 81.428 141.094 82.22C140.361 82.9827 139.774 83.9067 139.334 84.992C138.923 86.048 138.718 87.2507 138.718 88.6C138.718 89.92 138.923 91.1227 139.334 92.208C139.774 93.2933 140.361 94.232 141.094 95.024C141.857 95.7867 142.737 96.3733 143.734 96.784C144.761 97.1947 145.861 97.4 147.034 97.4ZM184.245 104.616C181.781 104.616 179.507 104.22 177.425 103.428C175.342 102.636 173.523 101.521 171.969 100.084C170.443 98.6173 169.255 96.916 168.405 94.98C167.554 93.044 167.129 90.9173 167.129 88.6C167.129 86.2827 167.554 84.156 168.405 82.22C169.255 80.284 170.443 78.5973 171.969 77.16C173.523 75.6933 175.342 74.564 177.425 73.772C179.507 72.98 181.781 72.584 184.245 72.584C186.738 72.584 189.011 72.98 191.065 73.772C193.147 74.564 194.951 75.6933 196.477 77.16C198.002 78.5973 199.19 80.284 200.041 82.22C200.921 84.156 201.361 86.2827 201.361 88.6C201.361 90.9173 200.921 93.0587 200.041 95.024C199.19 96.96 198.002 98.6467 196.477 100.084C194.951 101.521 193.147 102.636 191.065 103.428C189.011 104.22 186.738 104.616 184.245 104.616ZM184.245 97.4C185.418 97.4 186.503 97.1947 187.501 96.784C188.527 96.3733 189.407 95.7867 190.141 95.024C190.903 94.232 191.49 93.2933 191.901 92.208C192.341 91.1227 192.561 89.92 192.561 88.6C192.561 87.2507 192.341 86.048 191.901 84.992C191.49 83.9067 190.903 82.9827 190.141 82.22C189.407 81.428 188.527 80.8267 187.501 80.416C186.503 80.0053 185.418 79.8 184.245 79.8C183.071 79.8 181.971 80.0053 180.945 80.416C179.947 80.8267 179.067 81.428 178.305 82.22C177.571 82.9827 176.985 83.9067 176.545 84.992C176.134 86.048 175.929 87.2507 175.929 88.6C175.929 89.92 176.134 91.1227 176.545 92.208C176.985 93.2933 177.571 94.232 178.305 95.024C179.067 95.7867 179.947 96.3733 180.945 96.784C181.971 97.1947 183.071 97.4 184.245 97.4ZM205.924 104V73.2H214.636V97.092H229.332V104H205.924ZM49.292 158.616C44.7453 158.616 41.196 157.369 38.644 154.876C36.092 152.383 34.816 148.848 34.816 144.272V127.2H43.528V144.008C43.528 146.648 44.0413 148.54 45.068 149.684C46.124 150.828 47.5613 151.4 49.38 151.4C51.1987 151.4 52.6213 150.828 53.648 149.684C54.6747 148.54 55.188 146.648 55.188 144.008V127.2H63.768V144.272C63.768 148.848 62.492 152.383 59.94 154.876C57.388 157.369 53.8387 158.616 49.292 158.616ZM69.6698 158V127.2H76.8418L93.8258 147.704H90.4378V127.2H98.9738V158H91.8018L74.8178 137.496H78.2058V158H69.6698ZM105.119 158V127.2H113.831V158H105.119ZM128.125 140.708H142.337V147.44H128.125V140.708ZM128.741 158H120.029V127.2H144.185V133.932H128.741V158ZM163.534 158.616C161.07 158.616 158.797 158.22 156.714 157.428C154.631 156.636 152.813 155.521 151.258 154.084C149.733 152.617 148.545 150.916 147.694 148.98C146.843 147.044 146.418 144.917 146.418 142.6C146.418 140.283 146.843 138.156 147.694 136.22C148.545 134.284 149.733 132.597 151.258 131.16C152.813 129.693 154.631 128.564 156.714 127.772C158.797 126.98 161.07 126.584 163.534 126.584C166.027 126.584 168.301 126.98 170.354 127.772C172.437 128.564 174.241 129.693 175.766 131.16C177.291 132.597 178.479 134.284 179.33 136.22C180.21 138.156 180.65 140.283 180.65 142.6C180.65 144.917 180.21 147.059 179.33 149.024C178.479 150.96 177.291 152.647 175.766 154.084C174.241 155.521 172.437 156.636 170.354 157.428C168.301 158.22 166.027 158.616 163.534 158.616ZM163.534 151.4C164.707 151.4 165.793 151.195 166.79 150.784C167.817 150.373 168.697 149.787 169.43 149.024C170.193 148.232 170.779 147.293 171.19 146.208C171.63 145.123 171.85 143.92 171.85 142.6C171.85 141.251 171.63 140.048 171.19 138.992C170.779 137.907 170.193 136.983 169.43 136.22C168.697 135.428 167.817 134.827 166.79 134.416C165.793 134.005 164.707 133.8 163.534 133.8C162.361 133.8 161.261 134.005 160.234 134.416C159.237 134.827 158.357 135.428 157.594 136.22C156.861 136.983 156.274 137.907 155.834 138.992C155.423 140.048 155.218 141.251 155.218 142.6C155.218 143.92 155.423 145.123 155.834 146.208C156.274 147.293 156.861 148.232 157.594 149.024C158.357 149.787 159.237 150.373 160.234 150.784C161.261 151.195 162.361 151.4 163.534 151.4ZM185.213 158V127.2H199.293C202.109 127.2 204.529 127.655 206.553 128.564C208.606 129.473 210.19 130.793 211.305 132.524C212.419 134.225 212.977 136.249 212.977 138.596C212.977 140.913 212.419 142.923 211.305 144.624C210.19 146.296 208.606 147.587 206.553 148.496C204.529 149.376 202.109 149.816 199.293 149.816H190.053L193.925 146.164V158H185.213ZM204.265 158L196.609 146.78H205.893L213.593 158H204.265ZM193.925 147.088L190.053 143.084H198.765C200.583 143.084 201.933 142.688 202.813 141.896C203.722 141.104 204.177 140.004 204.177 138.596C204.177 137.159 203.722 136.044 202.813 135.252C201.933 134.46 200.583 134.064 198.765 134.064H190.053L193.925 130.06V147.088ZM217.783 158V127.2H224.955L237.715 148.144H233.931L246.339 127.2H253.511L253.599 158H245.591L245.503 139.388H246.867L237.583 154.964H233.711L224.163 139.388H225.835V158H217.783Z" fill="#34A853"/>
</svg>
