<svg width="345" height="390" viewBox="0 0 345 390" fill="none" xmlns="http://www.w3.org/2000/svg">
<rect width="345" height="390" rx="25" fill="white"/>
<g opacity="0.2">
<rect width="345" height="390" rx="25" fill="white"/>
<rect width="345" height="390" rx="25" fill="#27A3DA"/>
</g>
<path d="M45.904 104.616C43.3813 104.616 40.9467 104.308 38.6 103.692C36.2827 103.047 34.3907 102.225 32.924 101.228L35.784 94.804C37.1627 95.684 38.7467 96.4173 40.536 97.004C42.3547 97.5613 44.1587 97.84 45.948 97.84C47.1507 97.84 48.1187 97.7373 48.852 97.532C49.5853 97.2973 50.1133 97.004 50.436 96.652C50.788 96.2707 50.964 95.8307 50.964 95.332C50.964 94.628 50.6413 94.0707 49.996 93.66C49.3507 93.2493 48.5147 92.912 47.488 92.648C46.4613 92.384 45.3173 92.12 44.056 91.856C42.824 91.592 41.5773 91.2547 40.316 90.844C39.084 90.4333 37.9547 89.9053 36.928 89.26C35.9013 88.5853 35.0653 87.72 34.42 86.664C33.7747 85.5787 33.452 84.2147 33.452 82.572C33.452 80.724 33.9507 79.052 34.948 77.556C35.9747 76.06 37.5 74.8573 39.524 73.948C41.548 73.0387 44.0707 72.584 47.092 72.584C49.116 72.584 51.096 72.8187 53.032 73.288C54.9973 73.728 56.7427 74.388 58.268 75.268L55.584 81.736C54.1173 80.944 52.6653 80.3573 51.228 79.976C49.7907 79.5653 48.3973 79.36 47.048 79.36C45.8453 79.36 44.8773 79.492 44.144 79.756C43.4107 79.9907 42.8827 80.3133 42.56 80.724C42.2373 81.1347 42.076 81.604 42.076 82.132C42.076 82.8067 42.384 83.3493 43 83.76C43.6453 84.1413 44.4813 84.464 45.508 84.728C46.564 84.9627 47.708 85.212 48.94 85.476C50.2013 85.74 51.448 86.0773 52.68 86.488C53.9413 86.8693 55.0853 87.3973 56.112 88.072C57.1387 88.7173 57.96 89.5827 58.576 90.668C59.2213 91.724 59.544 93.0587 59.544 94.672C59.544 96.4613 59.0307 98.1187 58.004 99.644C57.0067 101.14 55.496 102.343 53.472 103.252C51.4773 104.161 48.9547 104.616 45.904 104.616ZM78.9243 104.616C76.4896 104.616 74.2309 104.235 72.1483 103.472C70.0949 102.68 68.3056 101.565 66.7803 100.128C65.2843 98.6907 64.1109 97.004 63.2603 95.068C62.4096 93.1027 61.9843 90.9467 61.9843 88.6C61.9843 86.2533 62.4096 84.112 63.2603 82.176C64.1109 80.2107 65.2843 78.5093 66.7803 77.072C68.3056 75.6347 70.0949 74.5347 72.1483 73.772C74.2309 72.98 76.4896 72.584 78.9243 72.584C81.7696 72.584 84.3069 73.0827 86.5363 74.08C88.7949 75.0773 90.6723 76.5147 92.1683 78.392L86.6243 83.408C85.6269 82.2347 84.5269 81.34 83.3243 80.724C82.1509 80.108 80.8309 79.8 79.3643 79.8C78.1029 79.8 76.9443 80.0053 75.8883 80.416C74.8323 80.8267 73.9229 81.428 73.1603 82.22C72.4269 82.9827 71.8403 83.9067 71.4003 84.992C70.9896 86.0773 70.7843 87.28 70.7843 88.6C70.7843 89.92 70.9896 91.1227 71.4003 92.208C71.8403 93.2933 72.4269 94.232 73.1603 95.024C73.9229 95.7867 74.8323 96.3733 75.8883 96.784C76.9443 97.1947 78.1029 97.4 79.3643 97.4C80.8309 97.4 82.1509 97.092 83.3243 96.476C84.5269 95.86 85.6269 94.9653 86.6243 93.792L92.1683 98.808C90.6723 100.656 88.7949 102.093 86.5363 103.12C84.3069 104.117 81.7696 104.616 78.9243 104.616ZM116.645 73.2H125.357V104H116.645V73.2ZM104.765 104H96.0527V73.2H104.765V104ZM117.261 91.988H104.149V84.772H117.261V91.988ZM147.034 104.616C144.57 104.616 142.297 104.22 140.214 103.428C138.131 102.636 136.313 101.521 134.758 100.084C133.233 98.6173 132.045 96.916 131.194 94.98C130.343 93.044 129.918 90.9173 129.918 88.6C129.918 86.2827 130.343 84.156 131.194 82.22C132.045 80.284 133.233 78.5973 134.758 77.16C136.313 75.6933 138.131 74.564 140.214 73.772C142.297 72.98 144.57 72.584 147.034 72.584C149.527 72.584 151.801 72.98 153.854 73.772C155.937 74.564 157.741 75.6933 159.266 77.16C160.791 78.5973 161.979 80.284 162.83 82.22C163.71 84.156 164.15 86.2827 164.15 88.6C164.15 90.9173 163.71 93.0587 162.83 95.024C161.979 96.96 160.791 98.6467 159.266 100.084C157.741 101.521 155.937 102.636 153.854 103.428C151.801 104.22 149.527 104.616 147.034 104.616ZM147.034 97.4C148.207 97.4 149.293 97.1947 150.29 96.784C151.317 96.3733 152.197 95.7867 152.93 95.024C153.693 94.232 154.279 93.2933 154.69 92.208C155.13 91.1227 155.35 89.92 155.35 88.6C155.35 87.2507 155.13 86.048 154.69 84.992C154.279 83.9067 153.693 82.9827 152.93 82.22C152.197 81.428 151.317 80.8267 150.29 80.416C149.293 80.0053 148.207 79.8 147.034 79.8C145.861 79.8 144.761 80.0053 143.734 80.416C142.737 80.8267 141.857 81.428 141.094 82.22C140.361 82.9827 139.774 83.9067 139.334 84.992C138.923 86.048 138.718 87.2507 138.718 88.6C138.718 89.92 138.923 91.1227 139.334 92.208C139.774 93.2933 140.361 94.232 141.094 95.024C141.857 95.7867 142.737 96.3733 143.734 96.784C144.761 97.1947 145.861 97.4 147.034 97.4ZM184.245 104.616C181.781 104.616 179.507 104.22 177.425 103.428C175.342 102.636 173.523 101.521 171.969 100.084C170.443 98.6173 169.255 96.916 168.405 94.98C167.554 93.044 167.129 90.9173 167.129 88.6C167.129 86.2827 167.554 84.156 168.405 82.22C169.255 80.284 170.443 78.5973 171.969 77.16C173.523 75.6933 175.342 74.564 177.425 73.772C179.507 72.98 181.781 72.584 184.245 72.584C186.738 72.584 189.011 72.98 191.065 73.772C193.147 74.564 194.951 75.6933 196.477 77.16C198.002 78.5973 199.19 80.284 200.041 82.22C200.921 84.156 201.361 86.2827 201.361 88.6C201.361 90.9173 200.921 93.0587 200.041 95.024C199.19 96.96 198.002 98.6467 196.477 100.084C194.951 101.521 193.147 102.636 191.065 103.428C189.011 104.22 186.738 104.616 184.245 104.616ZM184.245 97.4C185.418 97.4 186.503 97.1947 187.501 96.784C188.527 96.3733 189.407 95.7867 190.141 95.024C190.903 94.232 191.49 93.2933 191.901 92.208C192.341 91.1227 192.561 89.92 192.561 88.6C192.561 87.2507 192.341 86.048 191.901 84.992C191.49 83.9067 190.903 82.9827 190.141 82.22C189.407 81.428 188.527 80.8267 187.501 80.416C186.503 80.0053 185.418 79.8 184.245 79.8C183.071 79.8 181.971 80.0053 180.945 80.416C179.947 80.8267 179.067 81.428 178.305 82.22C177.571 82.9827 176.985 83.9067 176.545 84.992C176.134 86.048 175.929 87.2507 175.929 88.6C175.929 89.92 176.134 91.1227 176.545 92.208C176.985 93.2933 177.571 94.232 178.305 95.024C179.067 95.7867 179.947 96.3733 180.945 96.784C181.971 97.1947 183.071 97.4 184.245 97.4ZM205.924 104V73.2H214.636V97.092H229.332V104H205.924ZM45.904 159.616C43.3813 159.616 40.9467 159.308 38.6 158.692C36.2827 158.047 34.3907 157.225 32.924 156.228L35.784 149.804C37.1627 150.684 38.7467 151.417 40.536 152.004C42.3547 152.561 44.1587 152.84 45.948 152.84C47.1507 152.84 48.1187 152.737 48.852 152.532C49.5853 152.297 50.1133 152.004 50.436 151.652C50.788 151.271 50.964 150.831 50.964 150.332C50.964 149.628 50.6413 149.071 49.996 148.66C49.3507 148.249 48.5147 147.912 47.488 147.648C46.4613 147.384 45.3173 147.12 44.056 146.856C42.824 146.592 41.5773 146.255 40.316 145.844C39.084 145.433 37.9547 144.905 36.928 144.26C35.9013 143.585 35.0653 142.72 34.42 141.664C33.7747 140.579 33.452 139.215 33.452 137.572C33.452 135.724 33.9507 134.052 34.948 132.556C35.9747 131.06 37.5 129.857 39.524 128.948C41.548 128.039 44.0707 127.584 47.092 127.584C49.116 127.584 51.096 127.819 53.032 128.288C54.9973 128.728 56.7427 129.388 58.268 130.268L55.584 136.736C54.1173 135.944 52.6653 135.357 51.228 134.976C49.7907 134.565 48.3973 134.36 47.048 134.36C45.8453 134.36 44.8773 134.492 44.144 134.756C43.4107 134.991 42.8827 135.313 42.56 135.724C42.2373 136.135 42.076 136.604 42.076 137.132C42.076 137.807 42.384 138.349 43 138.76C43.6453 139.141 44.4813 139.464 45.508 139.728C46.564 139.963 47.708 140.212 48.94 140.476C50.2013 140.74 51.448 141.077 52.68 141.488C53.9413 141.869 55.0853 142.397 56.112 143.072C57.1387 143.717 57.96 144.583 58.576 145.668C59.2213 146.724 59.544 148.059 59.544 149.672C59.544 151.461 59.0307 153.119 58.004 154.644C57.0067 156.14 55.496 157.343 53.472 158.252C51.4773 159.161 48.9547 159.616 45.904 159.616ZM77.7803 159.616C73.2336 159.616 69.6843 158.369 67.1323 155.876C64.5803 153.383 63.3043 149.848 63.3043 145.272V128.2H72.0163V145.008C72.0163 147.648 72.5296 149.54 73.5563 150.684C74.6123 151.828 76.0496 152.4 77.8683 152.4C79.6869 152.4 81.1096 151.828 82.1363 150.684C83.1629 149.54 83.6763 147.648 83.6763 145.008V128.2H92.2563V145.272C92.2563 149.848 90.9803 153.383 88.4283 155.876C85.8763 158.369 82.3269 159.616 77.7803 159.616ZM98.1581 159V128.2H112.238C115.054 128.2 117.474 128.655 119.498 129.564C121.551 130.473 123.135 131.793 124.25 133.524C125.365 135.225 125.922 137.249 125.922 139.596C125.922 141.913 125.365 143.923 124.25 145.624C123.135 147.325 121.551 148.645 119.498 149.584C117.474 150.493 115.054 150.948 112.238 150.948H102.998L106.87 147.164V159H98.1581ZM106.87 148.088L102.998 144.084H111.71C113.529 144.084 114.878 143.688 115.758 142.896C116.667 142.104 117.122 141.004 117.122 139.596C117.122 138.159 116.667 137.044 115.758 136.252C114.878 135.46 113.529 135.064 111.71 135.064H102.998L106.87 131.06V148.088ZM130.17 159V128.2H144.25C147.066 128.2 149.486 128.655 151.51 129.564C153.563 130.473 155.147 131.793 156.262 133.524C157.377 135.225 157.934 137.249 157.934 139.596C157.934 141.913 157.377 143.923 156.262 145.624C155.147 147.325 153.563 148.645 151.51 149.584C149.486 150.493 147.066 150.948 144.25 150.948H135.01L138.882 147.164V159H130.17ZM138.882 148.088L135.01 144.084H143.722C145.541 144.084 146.89 143.688 147.77 142.896C148.679 142.104 149.134 141.004 149.134 139.596C149.134 138.159 148.679 137.044 147.77 136.252C146.89 135.46 145.541 135.064 143.722 135.064H135.01L138.882 131.06V148.088ZM162.182 159V128.2H170.894V152.092H185.59V159H162.182ZM189.037 159V128.2H197.749V159H189.037ZM211.955 140.124H226.255V146.636H211.955V140.124ZM212.571 152.268H228.675V159H203.947V128.2H228.103V134.932H212.571V152.268ZM244.334 159.616C241.811 159.616 239.376 159.308 237.03 158.692C234.712 158.047 232.82 157.225 231.354 156.228L234.214 149.804C235.592 150.684 237.176 151.417 238.966 152.004C240.784 152.561 242.588 152.84 244.378 152.84C245.58 152.84 246.548 152.737 247.282 152.532C248.015 152.297 248.543 152.004 248.866 151.652C249.218 151.271 249.394 150.831 249.394 150.332C249.394 149.628 249.071 149.071 248.426 148.66C247.78 148.249 246.944 147.912 245.918 147.648C244.891 147.384 243.747 147.12 242.486 146.856C241.254 146.592 240.007 146.255 238.746 145.844C237.514 145.433 236.384 144.905 235.358 144.26C234.331 143.585 233.495 142.72 232.85 141.664C232.204 140.579 231.882 139.215 231.882 137.572C231.882 135.724 232.38 134.052 233.378 132.556C234.404 131.06 235.93 129.857 237.954 128.948C239.978 128.039 242.5 127.584 245.522 127.584C247.546 127.584 249.526 127.819 251.462 128.288C253.427 128.728 255.172 129.388 256.698 130.268L254.014 136.736C252.547 135.944 251.095 135.357 249.658 134.976C248.22 134.565 246.827 134.36 245.478 134.36C244.275 134.36 243.307 134.492 242.574 134.756C241.84 134.991 241.312 135.313 240.99 135.724C240.667 136.135 240.506 136.604 240.506 137.132C240.506 137.807 240.814 138.349 241.43 138.76C242.075 139.141 242.911 139.464 243.938 139.728C244.994 139.963 246.138 140.212 247.37 140.476C248.631 140.74 249.878 141.077 251.11 141.488C252.371 141.869 253.515 142.397 254.542 143.072C255.568 143.717 256.39 144.583 257.006 145.668C257.651 146.724 257.974 148.059 257.974 149.672C257.974 151.461 257.46 153.119 256.434 154.644C255.436 156.14 253.926 157.343 251.902 158.252C249.907 159.161 247.384 159.616 244.334 159.616Z" fill="#0A73A1"/>
</svg>
