<svg width="345" height="390" viewBox="0 0 345 390" fill="none" xmlns="http://www.w3.org/2000/svg">
<rect width="345" height="390" rx="25" fill="white"/>
<rect width="345" height="390" rx="25" fill="white"/>
<rect width="345" height="390" rx="25" fill="#F2E7E3"/>
<path d="M35.08 104V73.2H50.832C54.88 73.2 57.9013 73.948 59.896 75.444C61.8907 76.9107 62.888 78.8467 62.888 81.252C62.888 82.836 62.4627 84.2293 61.612 85.432C60.7907 86.6053 59.6173 87.544 58.092 88.248C56.596 88.9227 54.8067 89.26 52.724 89.26L53.604 87.148C55.7747 87.148 57.6667 87.4853 59.28 88.16C60.8933 88.8053 62.14 89.7587 63.02 91.02C63.9293 92.252 64.384 93.7627 64.384 95.552C64.384 98.2213 63.2987 100.304 61.128 101.8C58.9867 103.267 55.848 104 51.712 104H35.08ZM43.704 97.708H51.008C52.504 97.708 53.6333 97.4587 54.396 96.96C55.188 96.432 55.584 95.64 55.584 94.584C55.584 93.528 55.188 92.7507 54.396 92.252C53.6333 91.724 52.504 91.46 51.008 91.46H43.088V85.432H49.688C51.1547 85.432 52.2547 85.1827 52.988 84.684C53.7213 84.1853 54.088 83.4373 54.088 82.44C54.088 81.4427 53.7213 80.7093 52.988 80.24C52.2547 79.7413 51.1547 79.492 49.688 79.492H43.704V97.708ZM84.4284 104.616C81.9644 104.616 79.6911 104.22 77.6084 103.428C75.5257 102.636 73.7071 101.521 72.1524 100.084C70.6271 98.6173 69.4391 96.916 68.5884 94.98C67.7377 93.044 67.3124 90.9173 67.3124 88.6C67.3124 86.2827 67.7377 84.156 68.5884 82.22C69.4391 80.284 70.6271 78.5973 72.1524 77.16C73.7071 75.6933 75.5257 74.564 77.6084 73.772C79.6911 72.98 81.9644 72.584 84.4284 72.584C86.9217 72.584 89.1951 72.98 91.2484 73.772C93.3311 74.564 95.1351 75.6933 96.6604 77.16C98.1857 78.5973 99.3737 80.284 100.224 82.22C101.104 84.156 101.544 86.2827 101.544 88.6C101.544 90.9173 101.104 93.0587 100.224 95.024C99.3737 96.96 98.1857 98.6467 96.6604 100.084C95.1351 101.521 93.3311 102.636 91.2484 103.428C89.1951 104.22 86.9217 104.616 84.4284 104.616ZM84.4284 97.4C85.6017 97.4 86.6871 97.1947 87.6844 96.784C88.7111 96.3733 89.5911 95.7867 90.3244 95.024C91.0871 94.232 91.6737 93.2933 92.0844 92.208C92.5244 91.1227 92.7444 89.92 92.7444 88.6C92.7444 87.2507 92.5244 86.048 92.0844 84.992C91.6737 83.9067 91.0871 82.9827 90.3244 82.22C89.5911 81.428 88.7111 80.8267 87.6844 80.416C86.6871 80.0053 85.6017 79.8 84.4284 79.8C83.2551 79.8 82.1551 80.0053 81.1284 80.416C80.1311 80.8267 79.2511 81.428 78.4884 82.22C77.7551 82.9827 77.1684 83.9067 76.7284 84.992C76.3177 86.048 76.1124 87.2507 76.1124 88.6C76.1124 89.92 76.3177 91.1227 76.7284 92.208C77.1684 93.2933 77.7551 94.232 78.4884 95.024C79.2511 95.7867 80.1311 96.3733 81.1284 96.784C82.1551 97.1947 83.2551 97.4 84.4284 97.4ZM121.639 104.616C119.175 104.616 116.902 104.22 114.819 103.428C112.737 102.636 110.918 101.521 109.363 100.084C107.838 98.6173 106.65 96.916 105.799 94.98C104.949 93.044 104.523 90.9173 104.523 88.6C104.523 86.2827 104.949 84.156 105.799 82.22C106.65 80.284 107.838 78.5973 109.363 77.16C110.918 75.6933 112.737 74.564 114.819 73.772C116.902 72.98 119.175 72.584 121.639 72.584C124.133 72.584 126.406 72.98 128.459 73.772C130.542 74.564 132.346 75.6933 133.871 77.16C135.397 78.5973 136.585 80.284 137.435 82.22C138.315 84.156 138.755 86.2827 138.755 88.6C138.755 90.9173 138.315 93.0587 137.435 95.024C136.585 96.96 135.397 98.6467 133.871 100.084C132.346 101.521 130.542 102.636 128.459 103.428C126.406 104.22 124.133 104.616 121.639 104.616ZM121.639 97.4C122.813 97.4 123.898 97.1947 124.895 96.784C125.922 96.3733 126.802 95.7867 127.535 95.024C128.298 94.232 128.885 93.2933 129.295 92.208C129.735 91.1227 129.955 89.92 129.955 88.6C129.955 87.2507 129.735 86.048 129.295 84.992C128.885 83.9067 128.298 82.9827 127.535 82.22C126.802 81.428 125.922 80.8267 124.895 80.416C123.898 80.0053 122.813 79.8 121.639 79.8C120.466 79.8 119.366 80.0053 118.339 80.416C117.342 80.8267 116.462 81.428 115.699 82.22C114.966 82.9827 114.379 83.9067 113.939 84.992C113.529 86.048 113.323 87.2507 113.323 88.6C113.323 89.92 113.529 91.1227 113.939 92.208C114.379 93.2933 114.966 94.232 115.699 95.024C116.462 95.7867 117.342 96.3733 118.339 96.784C119.366 97.1947 120.466 97.4 121.639 97.4ZM151.106 97.18L150.622 87.412L163.866 73.2H173.458L160.258 87.5L155.418 92.56L151.106 97.18ZM143.318 104V73.2H151.942V104H143.318ZM163.998 104L153.966 91.284L159.642 85.212L174.118 104H163.998ZM186.584 104.616C184.061 104.616 181.626 104.308 179.28 103.692C176.962 103.047 175.07 102.225 173.604 101.228L176.464 94.804C177.842 95.684 179.426 96.4173 181.216 97.004C183.034 97.5613 184.838 97.84 186.628 97.84C187.83 97.84 188.798 97.7373 189.532 97.532C190.265 97.2973 190.793 97.004 191.116 96.652C191.468 96.2707 191.644 95.8307 191.644 95.332C191.644 94.628 191.321 94.0707 190.676 93.66C190.03 93.2493 189.194 92.912 188.168 92.648C187.141 92.384 185.997 92.12 184.736 91.856C183.504 91.592 182.257 91.2547 180.996 90.844C179.764 90.4333 178.634 89.9053 177.608 89.26C176.581 88.5853 175.745 87.72 175.1 86.664C174.454 85.5787 174.132 84.2147 174.132 82.572C174.132 80.724 174.63 79.052 175.628 77.556C176.654 76.06 178.18 74.8573 180.204 73.948C182.228 73.0387 184.75 72.584 187.772 72.584C189.796 72.584 191.776 72.8187 193.712 73.288C195.677 73.728 197.422 74.388 198.948 75.268L196.264 81.736C194.797 80.944 193.345 80.3573 191.908 79.976C190.47 79.5653 189.077 79.36 187.728 79.36C186.525 79.36 185.557 79.492 184.824 79.756C184.09 79.9907 183.562 80.3133 183.24 80.724C182.917 81.1347 182.756 81.604 182.756 82.132C182.756 82.8067 183.064 83.3493 183.68 83.76C184.325 84.1413 185.161 84.464 186.188 84.728C187.244 84.9627 188.388 85.212 189.62 85.476C190.881 85.74 192.128 86.0773 193.36 86.488C194.621 86.8693 195.765 87.3973 196.792 88.072C197.818 88.7173 198.64 89.5827 199.256 90.668C199.901 91.724 200.224 93.0587 200.224 94.672C200.224 96.4613 199.71 98.1187 198.684 99.644C197.686 101.14 196.176 102.343 194.152 103.252C192.157 104.161 189.634 104.616 186.584 104.616Z" fill="#B18531"/>
</svg>
